<?xml version="1.0" encoding="utf-8"?>
<!-- Generator: Adobe Illustrator 27.0.0, SVG Export Plug-In . SVG Version: 6.00 Build 0)  -->
<svg version="1.1" id="outlines" xmlns="http://www.w3.org/2000/svg" xmlns:xlink="http://www.w3.org/1999/xlink" x="0px" y="0px"
	 viewBox="0 0 358.1 175" style="enable-background:new 0 0 358.1 175;" xml:space="preserve">
<style type="text/css">
	.st0{fill:#FF6A00;}
</style>
<g>
	<g>
		<path class="st0" d="M35,52.5h2.6c1.1,0,2-0.9,2-2v-9.1c0-1.1,0.9-2,2-2h15.6c1.1,0,2-0.9,2-2v-2.6c0-1.1-0.9-2-2-2H41.5
			c-1.1,0-2,0.9-2,2v2.6c0,1.1-0.9,2-2,2H35c-1.1,0-2,0.9-2,2v9.1C33,51.6,33.9,52.5,35,52.5z"/>
		<path class="st0" d="M83.1,19.9H67.5c-1.1,0-2,0.9-2,2v2.6c0,1.1,0.9,2,2,2h15.6c1.1,0,2-0.9,2-2v-2.6
			C85.1,20.8,84.2,19.9,83.1,19.9z"/>
		<path class="st0" d="M96.1,32.9h-2.6c-1.1,0-2,0.9-2,2V44c0,1.1,0.9,2,2,2h2.6c1.1,0,2-0.9,2-2v-9.1
			C98.1,33.8,97.2,32.9,96.1,32.9z"/>
		<path class="st0" d="M96.1,52.5h-2.6c-1.1,0-2,0.9-2,2V57c0,1.1,0.9,2,2,2h2.6c1.1,0,2-0.9,2-2v-2.6
			C98.1,53.3,97.2,52.5,96.1,52.5z"/>
		<path class="st0" d="M72.1,54.4c0-1.1-0.9-2-2-2h-2.6c-1.1,0-2,0.9-2,2v22.1c0,1.1-0.9,2-2,2h-9.1c-1.1,0-2-0.9-2-2V54.4
			c0-1.1,0.9-2,2-2h2.6c1.1,0,2-0.9,2-2v-2.6c0-1.1-0.9-2-2-2h-2.6c-1.1,0-2,0.9-2,2v2.6c0,1.1-0.9,2-2,2H48c-1.1,0-2,0.9-2,2V83
			c0,1.1,0.9,2,2,2h15.6c1.1,0,2-0.9,2-2v-2.6c0-1.1,0.9-2,2-2h2.6c1.1,0,2-0.9,2-2V54.4z"/>
		<path class="st0" d="M83.1,32.9H67.5c-1.1,0-2,0.9-2,2v2.6c0,1.1,0.9,2,2,2h9.1c1.1,0,2,0.9,2,2V57c0,1.1,0.9,2,2,2h2.6
			c1.1,0,2-0.9,2-2V34.9C85.1,33.8,84.2,32.9,83.1,32.9z"/>
		<path class="st0" d="M83.1,65.5h-2.6c-1.1,0-2,0.9-2,2v22.1c0,1.1-0.9,2-2,2H74c-1.1,0-2,0.9-2,2v2.6c0,1.1,0.9,2,2,2h2.6
			c1.1,0,2-0.9,2-2v-2.6c0-1.1,0.9-2,2-2h2.6c1.1,0,2-0.9,2-2V67.4C85.1,66.4,84.2,65.5,83.1,65.5z"/>
		<path class="st0" d="M63.6,91.5H41.5c-1.1,0-2-0.9-2-2V67.4c0-1.1-0.9-2-2-2H35c-1.1,0-2,0.9-2,2v22.1c0,1.1,0.9,2,2,2h2.6
			c1.1,0,2,0.9,2,2v2.6c0,1.1,0.9,2,2,2h22.1c1.1,0,2-0.9,2-2v-2.6C65.5,92.4,64.7,91.5,63.6,91.5z"/>
		<path class="st0" d="M50.6,104.5H35c-1.1,0-2,0.9-2,2v2.6c0,1.1,0.9,2,2,2h15.6c1.1,0,2-0.9,2-2v-2.6
			C52.5,105.4,51.7,104.5,50.6,104.5z"/>
		<path class="st0" d="M24.6,78.5H22c-1.1,0-2,0.9-2,2v9.1c0,1.1,0.9,2,2,2h2.6c1.1,0,2-0.9,2-2v-9.1C26.5,79.4,25.6,78.5,24.6,78.5
			z"/>
	</g>
	<g>
		<path class="st0" d="M121.4,108.3H117V106h11.1v2.3h-4.3V120h-2.5V108.3z"/>
		<path class="st0" d="M127.4,115.1c0-3.1,2-5.1,4.8-5.1c2.9,0,4.7,1.9,4.7,5c0,0.3,0,0.7-0.1,1.1h-7.1c0.1,1.5,1.1,2.3,2.5,2.3
			c1,0,1.7-0.5,2-1.2h2.4c-0.6,1.9-2.1,3.1-4.5,3.1C129.4,120.3,127.4,118.2,127.4,115.1z M134.6,114.1L134.6,114.1
			c0-1.3-0.9-2.2-2.3-2.2c-1.4,0-2.4,0.9-2.4,2.2H134.6z"/>
		<path class="st0" d="M138.4,115.2c0-3.1,2-5.2,5-5.2c2.5,0,4.3,1.5,4.5,3.6h-2.4c-0.2-0.8-0.9-1.5-2.1-1.5c-1.5,0-2.5,1.2-2.5,3
			c0,1.9,1,3,2.5,3c1.1,0,1.9-0.7,2.1-1.7h2.4c-0.3,2-1.9,3.8-4.6,3.8C140.2,120.3,138.4,118.1,138.4,115.2z"/>
		<path class="st0" d="M149.6,106h2.4v5c0.6-0.7,1.6-1.1,2.6-1.1c2.4,0,3.9,1.5,3.9,4.2v5.9h-2.4v-5.7c0-1.5-0.7-2.2-2-2.2
			c-1.3,0-2.2,0.9-2.2,2.3v5.6h-2.4V106z"/>
		<path class="st0" d="M161,110.2h2.1v1.1c0.6-1,1.7-1.4,2.9-1.4c2.4,0,3.9,1.5,3.9,4.2v5.9h-2.4v-5.7c0-1.5-0.7-2.2-2-2.2
			c-1.3,0-2.2,0.9-2.2,2.3v5.6H161V110.2z"/>
		<path class="st0" d="M172.2,106.1h2.6v2.4h-2.6V106.1z M172.3,110.2h2.4v9.8h-2.4V110.2z"/>
		<path class="st0" d="M176.5,117.2h2.5c0.1,0.8,0.8,1.2,2,1.2c1.1,0,1.7-0.5,1.7-1.2c0-0.6-0.5-0.9-1.3-1l-1.6-0.2
			c-1.8-0.2-3-1.3-3-2.9c0-1.9,1.6-3.1,4-3.1c2.5,0,4,1,4.1,3.1h-2.4c0-0.8-0.7-1.1-1.8-1.1c-1,0-1.7,0.4-1.7,1.1
			c0,0.6,0.5,0.9,1.4,1l1.6,0.2c1.8,0.2,2.9,1.3,2.9,2.9c0,2-1.6,3.2-4.2,3.2C178.2,120.3,176.6,119.2,176.5,117.2z"/>
		<path class="st0" d="M186.4,115.2c0-3.1,2-5.2,5-5.2c2.5,0,4.3,1.5,4.5,3.6h-2.4c-0.2-0.8-0.9-1.5-2.1-1.5c-1.5,0-2.5,1.2-2.5,3
			c0,1.9,1,3,2.5,3c1.1,0,1.9-0.7,2.1-1.7h2.4c-0.3,2-1.9,3.8-4.6,3.8C188.2,120.3,186.4,118.1,186.4,115.2z"/>
		<path class="st0" d="M197.6,106h2.4v5c0.6-0.7,1.6-1.1,2.6-1.1c2.4,0,3.9,1.5,3.9,4.2v5.9h-2.4v-5.7c0-1.5-0.7-2.2-2-2.2
			c-1.3,0-2.2,0.9-2.2,2.3v5.6h-2.4V106z"/>
		<path class="st0" d="M208.4,115.1c0-3.1,2-5.1,4.8-5.1c2.9,0,4.7,1.9,4.7,5c0,0.3,0,0.7-0.1,1.1h-7.1c0.1,1.5,1.1,2.3,2.5,2.3
			c1,0,1.7-0.5,2-1.2h2.4c-0.6,1.9-2.1,3.1-4.5,3.1C210.3,120.3,208.4,118.2,208.4,115.1z M215.5,114.1L215.5,114.1
			c0-1.3-0.9-2.2-2.3-2.2c-1.4,0-2.4,0.9-2.4,2.2H215.5z"/>
		<path class="st0" d="M233.8,113.8h-6.3v6.2H225v-14h2.5v5.5h6.3V106h2.5v14h-2.5V113.8z"/>
		<path class="st0" d="M238.5,115.1c0-3.1,2.1-5.2,5.1-5.2c3,0,5.1,2.1,5.1,5.2s-2.1,5.2-5.1,5.2
			C240.6,120.3,238.5,118.2,238.5,115.1z M243.6,118.1c1.6,0,2.6-1.2,2.6-3c0-1.8-1.1-3-2.6-3c-1.6,0-2.6,1.2-2.6,3
			C241,116.9,242,118.1,243.6,118.1z"/>
		<path class="st0" d="M250.1,115.2c0-3.1,2-5.2,5-5.2c2.5,0,4.3,1.5,4.5,3.6h-2.4c-0.2-0.8-0.9-1.5-2.1-1.5c-1.5,0-2.5,1.2-2.5,3
			c0,1.9,1,3,2.5,3c1.1,0,1.9-0.7,2.1-1.7h2.4c-0.3,2-1.9,3.8-4.6,3.8C252,120.3,250.1,118.1,250.1,115.2z"/>
		<path class="st0" d="M261.4,106h2.4v5c0.6-0.7,1.6-1.1,2.6-1.1c2.4,0,3.9,1.5,3.9,4.2v5.9h-2.4v-5.7c0-1.5-0.7-2.2-2-2.2
			c-1.3,0-2.2,0.9-2.2,2.3v5.6h-2.4V106z"/>
		<path class="st0" d="M272,117.2h2.5c0.1,0.8,0.8,1.2,2,1.2c1.1,0,1.7-0.5,1.7-1.2c0-0.6-0.5-0.9-1.3-1l-1.6-0.2
			c-1.8-0.2-3-1.3-3-2.9c0-1.9,1.6-3.1,4-3.1c2.5,0,4,1,4.1,3.1h-2.4c0-0.8-0.7-1.1-1.8-1.1c-1,0-1.7,0.4-1.7,1.1
			c0,0.6,0.5,0.9,1.4,1l1.6,0.2c1.8,0.2,2.9,1.3,2.9,2.9c0,2-1.6,3.2-4.2,3.2C273.7,120.3,272.1,119.2,272,117.2z"/>
		<path class="st0" d="M281.9,115.2c0-3.1,2-5.2,5-5.2c2.5,0,4.3,1.5,4.5,3.6h-2.4c-0.2-0.8-0.9-1.5-2.1-1.5c-1.5,0-2.5,1.2-2.5,3
			c0,1.9,1,3,2.5,3c1.1,0,1.9-0.7,2.1-1.7h2.4c-0.3,2-1.9,3.8-4.6,3.8C283.8,120.3,281.9,118.1,281.9,115.2z"/>
		<path class="st0" d="M293.1,106h2.4v5c0.6-0.7,1.6-1.1,2.6-1.1c2.4,0,3.9,1.5,3.9,4.2v5.9h-2.4v-5.7c0-1.5-0.7-2.2-2-2.2
			c-1.3,0-2.2,0.9-2.2,2.3v5.6h-2.4V106z"/>
		<path class="st0" d="M304.3,116.1v-5.9h2.4v5.7c0,1.5,0.7,2.2,1.9,2.2c1.3,0,2.1-0.9,2.1-2.3v-5.6h2.4v9.8H311v-0.9
			c-0.6,0.8-1.7,1.2-2.8,1.2C305.7,120.3,304.3,118.8,304.3,116.1z"/>
		<path class="st0" d="M315.5,118.1V106h2.4v11.2c0,0.5,0.2,0.7,0.7,0.7h1.1v2.1h-2.1C316.2,120,315.5,119.5,315.5,118.1z"/>
		<path class="st0" d="M320.6,115.1c0-3.1,2-5.1,4.8-5.1c2.9,0,4.7,1.9,4.7,5c0,0.3,0,0.7-0.1,1.1H323c0.1,1.5,1.1,2.3,2.5,2.3
			c1,0,1.7-0.5,2-1.2h2.4c-0.6,1.9-2.1,3.1-4.5,3.1C322.6,120.3,320.6,118.2,320.6,115.1z M327.8,114.1L327.8,114.1
			c0-1.3-0.9-2.2-2.3-2.2c-1.4,0-2.4,0.9-2.4,2.2H327.8z"/>
		<path class="st0" d="M117.2,131h2.6l2.5,10.7l2.5-10.7h2.7l2.5,10.6l2.5-10.6h2.7l-3.6,14h-2.9l-2.6-10.6l-2.6,10.6h-2.9
			L117.2,131z"/>
		<path class="st0" d="M136.4,141.1v-5.9h2.4v5.7c0,1.5,0.7,2.2,1.9,2.2c1.3,0,2.1-0.9,2.1-2.3v-5.6h2.4v9.8h-2.1v-0.9
			c-0.6,0.8-1.7,1.2-2.8,1.2C137.9,145.3,136.4,143.8,136.4,141.1z M138,131.1h2.2v2.3H138V131.1z M141.4,131.1h2.2v2.3h-2.2V131.1z
			"/>
		<path class="st0" d="M147.7,135.2h2.1v1.7c0.2-1.1,1-1.7,2.2-1.7h1.8v2.1h-2.1c-1.2,0-1.7,0.6-1.7,1.8v5.8h-2.4V135.2z"/>
		<path class="st0" d="M154.9,142.9l5.2-5.6H155v-2.1h8.3v2.1l-5.2,5.6h5.4v2.1h-8.6V142.9z"/>
		<path class="st0" d="M167.5,143.8v1.2h-2.1v-14h2.4v5.2c0.6-0.8,1.7-1.3,2.9-1.3c2.8,0,4.7,2.1,4.7,5.2s-1.9,5.2-4.7,5.2
			C169.3,145.3,168.1,144.8,167.5,143.8z M170.4,143.1c1.5,0,2.6-1.2,2.6-3c0-1.8-1.1-3-2.6-3c-1.6,0-2.6,1.2-2.6,3
			C167.8,141.9,168.8,143.1,170.4,143.1z"/>
		<path class="st0" d="M177.2,141.1v-5.9h2.4v5.7c0,1.5,0.7,2.2,1.9,2.2c1.3,0,2.1-0.9,2.1-2.3v-5.6h2.4v9.8h-2.1v-0.9
			c-0.6,0.8-1.7,1.2-2.8,1.2C178.7,145.3,177.2,143.8,177.2,141.1z"/>
		<path class="st0" d="M188.5,135.2h2.1v1.7c0.2-1.1,1-1.7,2.2-1.7h1.8v2.1h-2.1c-1.2,0-1.7,0.6-1.7,1.8v5.8h-2.4V135.2z"/>
		<path class="st0" d="M195.2,146.1c0-0.8,0.4-1.5,1.2-2c-0.5-0.4-0.9-0.9-0.9-1.6c0-0.8,0.5-1.6,1.6-1.9c-0.8-0.6-1.2-1.5-1.2-2.4
			c0-1.9,1.4-3.3,4-3.3c1.6,0,2.9,0.8,3.3,1.8v-0.3c0-1,0.6-1.2,1.2-1.2h1.4v2.1h-1.6c-0.2,0-0.4,0.1-0.4,0.4v0.7
			c0,2-1.6,3.3-3.8,3.3h-1.6c-0.5,0-0.8,0.2-0.8,0.6c0,0.4,0.3,0.6,0.8,0.6h3.5c2,0,3.2,1,3.2,2.6c0,1.6-0.9,2.9-3.2,2.9h-3.5
			C196.1,148.6,195.2,147.5,195.2,146.1z M198.6,146.8h3c0.6,0,1.1-0.3,1.1-1c0-0.5-0.4-0.8-1-0.8h-3.1c-0.8,0-1.2,0.4-1.2,0.9
			C197.4,146.4,197.8,146.8,198.6,146.8z M199.9,140c1.1,0,1.7-0.6,1.7-1.6c0-1-0.7-1.6-1.7-1.6s-1.7,0.6-1.7,1.6
			C198.2,139.4,198.8,140,199.9,140z"/>
		<path class="st0" d="M206.9,137.8h6.3v2.3h-6.3V137.8z"/>
		<path class="st0" d="M214.8,140.7h2.5c0,1.5,1.2,2.4,3.2,2.4c1.7,0,2.8-0.8,2.8-2.2c0-1.1-0.7-1.7-2.2-1.9l-1.7-0.2
			c-2.8-0.4-4.1-1.7-4.1-3.9c0-2.5,2.1-4.2,5.1-4.2c3.2,0,5.2,1.6,5.2,4.1h-2.5c-0.1-1.2-1.1-1.9-2.7-1.9c-1.6,0-2.6,0.7-2.6,1.8
			c0,1,0.7,1.6,2.3,1.8l1.6,0.2c2.7,0.3,4.1,1.7,4.1,4.1c0,2.8-2,4.5-5.3,4.5C217,145.3,214.9,143.6,214.8,140.7z"/>
		<path class="st0" d="M227.4,140.2c0-3.1,2-5.2,5-5.2c2.5,0,4.3,1.5,4.5,3.6h-2.4c-0.2-0.8-0.9-1.5-2.1-1.5c-1.5,0-2.5,1.2-2.5,3
			c0,1.9,1,3,2.5,3c1.1,0,1.9-0.7,2.1-1.7h2.4c-0.3,2-1.9,3.8-4.6,3.8C229.3,145.3,227.4,143.1,227.4,140.2z"/>
		<path class="st0" d="M238.7,131h2.4v5c0.6-0.7,1.6-1.1,2.6-1.1c2.4,0,3.9,1.5,3.9,4.2v5.9h-2.4v-5.7c0-1.5-0.7-2.2-2-2.2
			c-1.3,0-2.2,0.9-2.2,2.3v5.6h-2.4V131z"/>
		<path class="st0" d="M248.7,135.2h2.5l1.9,7.1l1.9-7.1h2.7l1.9,7.1l1.9-7.1h2.5l-2.9,9.8h-2.8l-1.9-7.1l-1.9,7.1h-2.8L248.7,135.2
			z"/>
		<path class="st0" d="M264.7,140.1c0-3.1,2-5.1,4.8-5.1c2.9,0,4.7,1.9,4.7,5c0,0.3,0,0.7-0.1,1.1h-7.1c0.1,1.5,1.1,2.3,2.5,2.3
			c1,0,1.7-0.5,2-1.2h2.4c-0.6,1.9-2.1,3.1-4.5,3.1C266.7,145.3,264.7,143.2,264.7,140.1z M271.8,139.1L271.8,139.1
			c0-1.3-0.9-2.2-2.3-2.2c-1.4,0-2.4,0.9-2.4,2.2H271.8z"/>
		<path class="st0" d="M276.1,131.1h2.6v2.4h-2.6V131.1z M276.2,135.2h2.4v9.8h-2.4V135.2z"/>
		<path class="st0" d="M281.1,135.2h2.1v1.1c0.6-1,1.7-1.4,2.9-1.4c2.4,0,3.9,1.5,3.9,4.2v5.9h-2.4v-5.7c0-1.5-0.7-2.2-2-2.2
			c-1.3,0-2.2,0.9-2.2,2.3v5.6h-2.4V135.2z"/>
		<path class="st0" d="M296.5,131h3.3v2.1h-2.7c-0.6,0-1,0.3-1,0.9v1.2h3.1v2.1h-3.1v7.7h-2.4v-7.7h-2.5v-2.1h2.5v-1.5
			C293.7,132,294.8,131,296.5,131z"/>
		<path class="st0" d="M300.6,141.1v-5.9h2.4v5.7c0,1.5,0.7,2.2,1.9,2.2c1.3,0,2.1-0.9,2.1-2.3v-5.6h2.4v9.8h-2.1v-0.9
			c-0.6,0.8-1.7,1.2-2.8,1.2C302.1,145.3,300.6,143.8,300.6,141.1z"/>
		<path class="st0" d="M311.9,135.2h2.1v1.7c0.2-1.1,1-1.7,2.2-1.7h1.8v2.1h-2.1c-1.2,0-1.7,0.6-1.7,1.8v5.8h-2.4V135.2z"/>
		<path class="st0" d="M321.3,142.5v-5.2h-2.5v-2.1h2.5v-2.9h2.4v2.9h3v2.1h-3v4.6c0,0.6,0.2,0.9,0.9,0.9h2.1v2.1h-2.9
			C322.1,145,321.3,144.3,321.3,142.5z"/>
	</g>
	<g>
		<path class="st0" d="M123.1,75.1V54.4h-10V46h10V34.5h9.5V46h11.9v8.4h-11.9v18.6c0,2.6,1,3.7,3.7,3.7h8.2V85h-11.4
			C126.3,85,123.1,82.2,123.1,75.1z"/>
		<path class="st0" d="M151.7,29h9.5v20c2.5-2.8,6.2-4.2,10.6-4.2c9.6,0,15.5,6.1,15.5,16.6V85h-9.5V62.4c0-6.1-2.9-9-7.9-9
			c-5.2,0-8.6,3.7-8.6,9.3V85h-9.5V29z"/>
		<path class="st0" d="M192.1,46h9.9l7.6,28.4l7.6-28.4h11l7.6,28.4l7.6-28.4h9.9l-11.7,39h-11.3l-7.6-28.3L215.1,85h-11.3L192.1,46
			z"/>
		<path class="st0" d="M256.3,73.6h9.8c0.3,3.3,3.1,4.9,7.9,4.9c4.3,0,7-1.8,7-4.7c0-2.5-1.9-3.8-5.4-4.1l-6.2-0.6
			c-7.3-0.8-11.8-5.1-11.8-11.8c0-7.8,6.2-12.6,16.2-12.6c9.8,0,16.1,4.2,16.6,12.3h-9.5c-0.2-3.1-2.9-4.6-7.2-4.6
			c-4.1,0-6.6,1.6-6.6,4.3c0,2.3,1.8,3.6,5.8,4.1l6.3,0.7c7.4,0.9,11.6,5.2,11.6,11.7c0,7.8-6.5,12.9-16.9,12.9
			C263.1,86.2,256.7,81.9,256.3,73.6z"/>
	</g>
</g>
</svg>
